#!OML:ASF F:\VICON\USERDATA\INSTALL\rory3\rory3.ASF
:FULLY-SPECIFIED
:DEGREES
1444
root 0.683904 15.1226 -1.59724 11.9608 -7.28 8.53359
lowerback 29.2195 -2.67961 5.36853
upperback 9.10108 -1.44695 5.85624
thorax -5.78178 -0.747445 3.92377
lowerneck -11.7814 -7.11407 -11.979
upperneck 10.1755 -8.54558 7.87833
head 5.86296 -4.09777 3.65091
rclavicle -2.54444e-014 2.8625e-014
rhumerus -22.6483 -32.0478 -26.8293
rradius 66.3336
rwrist 18.631
rhand -8.997 7.44065
rfingers 7.12502
rthumb 16.9493 -21.8398
lclavicle -2.54444e-014 2.8625e-014
lhumerus -58.7505 -35.1256 84.4792
lradius 87.2292
lwrist 22.992
lhand 5.95825 12.6379
lfingers 7.12502
lthumb 31.2835 39.9849
rfemur -45.3944 5.49846 2.50576
rtibia 54.0635
rfoot -16.7113 -6.62916
rtoes -20.9679
lfemur -38.398 5.40971 -28.5373
ltibia 44.7646
lfoot -13.1038 -1.74965
ltoes -6.51919
1445
root 0.657161 15.1281 -1.62493 12.1636 -7.03334 8.16051
lowerback 29.2669 -2.58675 5.13201
upperback 9.2872 -1.42257 5.64004
thorax -5.59769 -0.733474 3.80223
lowerneck -11.6823 -7.01191 -11.8195
upperneck 10.2945 -8.41673 7.62872
head 5.85253 -4.04864 3.56198
rclavicle -1.59028e-014 1.19271e-013
rhumerus -23.0752 -30.6313 -28.4911
rradius 66.3432
rwrist 18.4478
rhand -9.04736 7.88189
rfingers 7.12502
rthumb 16.9008 -21.4027
lclavicle -1.59028e-014 1.19271e-013
lhumerus -56.8748 -34.5336 82.9791
lradius 86.4371
lwrist 22.7737
lhand 5.59402 12.7418
lfingers 7.12502
lthumb 30.9364 40.1554
rfemur -45.5471 5.39695 3.05479
rtibia 53.8962
rfoot -16.611 -6.76076
rtoes -21.2137
lfemur -38.7456 5.28061 -28.0104
ltibia 44.8339
lfoot -12.9262 -1.75859
ltoes -6.8126
1446
root 0.629352 15.1312 -1.65362 12.3806 -6.81058 7.81069
lowerback 29.2972 -2.48829 4.87744
upperback 9.48276 -1.40145 5.37586
thorax -5.39613 -0.720633 3.6378
lowerneck -12.0636 -6.96593 -11.4736
upperneck 10.9104 -8.34276 7.24133
head 6.07135 -4.01958 3.37779
rclavicle 1.59028e-015 -1.59028e-015
rhumerus -23.4702 -29.0266 -30.392
rradius 66.3439
rwrist 18.385
rhand -9.57469 7.62303
rfingers 7.12502
rthumb 16.3932 -21.7042
lclavicle 1.59028e-015 -1.59028e-015
lhumerus -54.9913 -33.807 81.4742
lradius 85.6862
lwrist 22.5153
lhand 5.36732 12.8576
lfingers 7.12502
lthumb 30.7203 40.312
rfemur -45.7221 5.33825 3.56087
rtibia 53.7298
rfoot -16.3834 -6.84441
rtoes -21.1279
lfemur -39.1201 5.15307 -27.4972
ltibia 44.9107
lfoot -12.7741 -1.74476
ltoes -6.85722
1447
root 0.600731 15.136 -1.68431 12.5467 -6.55725 7.46233
lowerback 29.378 -2.41454 4.58948
upperback 9.72108 -1.41835 5.10421
thorax -5.16823 -0.72629 3.49876
lowerneck -12.7382 -6.88756 -11.0064
upperneck 11.678 -8.21205 6.78967
head 6.37639 -3.95798 3.1514
rclavicle 1.43125e-014 2.70347e-014
rhumerus -23.673 -27.3117 -32.5003
rradius 66.2039
rwrist 18.6184
rhand -10.2567 7.32749
rfingers 7.12502
rthumb 15.7364 -22.0527
lclavicle 1.43125e-014 2.70347e-014
lhumerus -53.1608 -32.914 80.0815
lradius 84.9827
lwrist 22.1257
lhand 4.83396 13.0315
lfingers 7.12502
lthumb 30.2116 40.5803
rfemur -45.8368 5.27645 4.08352
rtibia 53.5612
rfoot -16.1526 -6.90626
rtoes -20.9529
lfemur -39.4431 5.02691 -26.9721
ltibia 44.9916
lfoot -12.6229 -1.72507
ltoes -7.00743
1448
root 0.573019 15.1436 -1.71139 12.7132 -6.24699 7.08134
lowerback 29.495 -2.29046 4.32343
upperback 9.87564 -1.34827 4.93062
thorax -5.05177 -0.692035 3.43355
lowerneck -12.9601 -6.85386 -10.8709
upperneck 12.0664 -8.15321 6.59744
head 6.51857 -3.93485 3.06681
rclavicle -1.11319e-014 -3.33958e-014
rhumerus -24.0293 -25.275 -34.2677
rradius 65.9675
rwrist 18.677
rhand -10.7779 7.64051
rfingers 7.12502
rthumb 15.2344 -21.7786
lclavicle -1.11319e-014 -3.33958e-014
lhumerus -51.5395 -32.1973 79.1568
lradius 84.2865
lwrist 21.6448
lhand 3.64454 13.1255
lfingers 7.12502
lthumb 29.0763 40.8761
rfemur -45.8878 5.17235 4.64481
rtibia 53.377
rfoot -16.0052 -6.94127
rtoes -20.5503
lfemur -39.7449 4.87866 -26.4256
ltibia 45.0694
lfoot -12.4973 -1.6412
ltoes -7.5429
1449
root 0.543625 15.1509 -1.73538 12.8609 -6.01759 6.72057
lowerback 29.6403 -2.03206 3.89252
upperback 9.95589 -1.14046 4.86455
thorax -5.03199 -0.596184 3.54187
lowerneck -12.5672 -6.8768 -11.0513
upperneck 12.0631 -8.18429 6.55354
head 6.45993 -3.9688 3.088
rclavicle -3.02153e-014 1.43125e-014
rhumerus -24.4056 -22.971 -35.8215
rradius 65.5829
rwrist 18.7455
rhand -11.3288 8.10266
rfingers 7.12502
rthumb 14.7037 -21.3559
lclavicle -3.02153e-014 1.43125e-014
lhumerus -50.1104 -31.6386 78.6639
lradius 83.665
lwrist 21.266
lhand 2.21001 13.3382
lfingers 7.12502
lthumb 27.7054 41.3172
rfemur -45.9467 5.11399 5.16993
rtibia 53.1912
rfoot -15.857 -6.86925
rtoes -19.7615
lfemur -40.0228 4.78459 -25.9069
ltibia 45.1501
lfoot -12.4572 -1.49636
ltoes -8.01243
1450
root 0.513024 15.1573 -1.75979 12.9645 -5.75711 6.31421
lowerback 29.7297 -1.87295 3.53353
upperback 10.1277 -1.05386 4.72272
thorax -4.88198 -0.556861 3.55943
lowerneck -12.2155 -6.84046 -11.1438
upperneck 11.9741 -8.14012 6.47622
head 6.36885 -3.9638 3.09252
rclavicle -3.18055e-015 -4.45278e-014
rhumerus -24.6398 -20.5517 -37.8104
rradius 65.4558
rwrist 18.9899
rhand -11.8124 8.10411
rfingers 7.12502
rthumb 14.2377 -21.3879
lclavicle -3.18055e-015 -4.45278e-014
lhumerus -48.7142 -31.2083 77.9403
lradius 83.2571
lwrist 21.2203
lhand 0.802196 13.5792
lfingers 7.12502
lthumb 26.3585 41.7673
rfemur -45.9346 5.07204 5.76081
rtibia 53.0054
rfoot -15.6157 -6.82885
rtoes -18.778
lfemur -40.2576 4.71442 -25.3317
ltibia 45.2257
lfoot -12.3876 -1.46632
ltoes -8.26716
1451
root 0.480937 15.1628 -1.78467 13.0554 -5.39946 5.85655
lowerback 29.7872 -1.90246 3.23349
upperback 10.2841 -1.18959 4.54722
thorax -4.72702 -0.62341 3.57816
lowerneck -11.9737 -6.68922 -11.5312
upperneck 12.1041 -7.91407 6.60177
head 6.37062 -3.86846 3.22491
rclavicle 6.36111e-015 1.11319e-014
rhumerus -24.6698 -17.5904 -40.039
rradius 65.5509
rwrist 19.0769
rhand -12.2127 8.03891
rfingers 7.12502
rthumb 13.852 -21.4798
lclavicle 6.36111e-015 1.11319e-014
lhumerus -47.6542 -30.6114 77.2818
lradius 82.9703
lwrist 21.2793
lhand -0.505397 13.7504
lfingers 7.12502
lthumb 25.1062 42.1198
rfemur -45.859 5.02338 6.41807
rtibia 52.7972
rfoot -15.3848 -6.77197
rtoes -17.402
lfemur -40.4723 4.58696 -24.6649
ltibia 45.2761
lfoot -12.273 -1.49917
ltoes -8.3155
1452
root 0.447876 15.1689 -1.80825 13.2296 -5.08738 5.42557
lowerback 29.6383 -1.87993 2.93089
upperback 10.4458 -1.27455 4.35726
thorax -4.47325 -0.666081 3.55728
lowerneck -11.7582 -6.59304 -11.9653
upperneck 12.2268 -7.76104 6.7823
head 6.38443 -3.80617 3.3738
rclavicle 0 5.64548e-014
rhumerus -24.7426 -14.3915 -42.1005
rradius 65.641
rwrist 18.9774
rhand -12.777 8.09631
rfingers 7.12502
rthumb 13.3081 -21.4588
lclavicle 0 5.64548e-014
lhumerus -46.5824 -30.1287 76.8156
lradius 82.6539
lwrist 21.3106
lhand -1.60477 13.7461
lfingers 7.12502
lthumb 24.0524 42.2588
rfemur -45.924 5.01738 7.03337
rtibia 52.5767
rfoot -15.2824 -6.96344
rtoes -17.3556
lfemur -40.7608 4.51875 -24.0406
ltibia 45.3055
lfoot -12.1226 -1.61213
ltoes -8.37822
